<svg xmlns="http://www.w3.org/2000/svg" width="16.667" height="13.333" viewBox="0 0 16.667 13.333" fill="none">
  <path d="M 6.667 9.083 C 7.081 9.083 7.417 8.748 7.417 8.333 C 7.417 7.919 7.081 7.583 6.667 7.583 L 6.667 8.333 L 6.667 9.083 Z M 0 7.583 C -0.414 7.583 -0.75 7.919 -0.75 8.333 C -0.75 8.748 -0.414 9.083 0 9.083 L 0 8.333 L 0 7.583 Z M 5 5.75 C 5.414 5.75 5.75 5.414 5.75 5 C 5.75 4.586 5.414 4.25 5 4.25 L 5 5 L 5 5.75 Z M 0 4.25 C -0.414 4.25 -0.75 4.586 -0.75 5 C -0.75 5.414 -0.414 5.75 0 5.75 L 0 5 L 0 4.25 Z M 3.333 2.417 C 3.748 2.417 4.083 2.081 4.083 1.667 C 4.083 1.252 3.748 0.917 3.333 0.917 L 3.333 1.667 L 3.333 2.417 Z M 0 0.917 C -0.414 0.917 -0.75 1.252 -0.75 1.667 C -0.75 2.081 -0.414 2.417 0 2.417 L 0 1.667 L 0 0.917 Z M 8.333 12.417 C 8.748 12.417 9.083 12.081 9.083 11.667 C 9.083 11.252 8.748 10.917 8.333 10.917 L 8.333 11.667 L 8.333 12.417 Z M 0 10.917 C -0.414 10.917 -0.75 11.252 -0.75 11.667 C -0.75 12.081 -0.414 12.417 0 12.417 L 0 11.667 L 0 10.917 Z M 14.167 13.333 L 13.636 13.864 C 13.929 14.157 14.404 14.157 14.697 13.864 L 14.167 13.333 Z M 14.167 0 L 14.697 -0.53 C 14.404 -0.823 13.929 -0.823 13.636 -0.53 L 14.167 0 Z M 17.197 11.364 C 17.49 11.071 17.49 10.596 17.197 10.303 C 16.904 10.01 16.429 10.01 16.136 10.303 L 16.667 10.833 L 17.197 11.364 Z M 12.197 10.303 C 11.904 10.01 11.429 10.01 11.136 10.303 C 10.843 10.596 10.843 11.071 11.136 11.364 L 11.667 10.833 L 12.197 10.303 Z M 16.136 3.03 C 16.429 3.323 16.904 3.323 17.197 3.03 C 17.49 2.737 17.49 2.263 17.197 1.97 L 16.667 2.5 L 16.136 3.03 Z M 11.136 1.97 C 10.843 2.263 10.843 2.737 11.136 3.03 C 11.429 3.323 11.904 3.323 12.197 3.03 L 11.667 2.5 L 11.136 1.97 Z M 6.667 8.333 L 6.667 7.583 L 0 7.583 L 0 8.333 L 0 9.083 L 6.667 9.083 L 6.667 8.333 Z M 5 5 L 5 4.25 L 0 4.25 L 0 5 L 0 5.75 L 5 5.75 L 5 5 Z M 3.333 1.667 L 3.333 0.917 L 0 0.917 L 0 1.667 L 0 2.417 L 3.333 2.417 L 3.333 1.667 Z M 8.333 11.667 L 8.333 10.917 L 0 10.917 L 0 11.667 L 0 12.417 L 8.333 12.417 L 8.333 11.667 Z M 14.167 13.333 L 14.917 13.333 L 14.917 0 L 14.167 0 L 13.417 0 L 13.417 13.333 L 14.167 13.333 Z M 14.167 13.333 L 14.697 13.864 L 17.197 11.364 L 16.667 10.833 L 16.136 10.303 L 13.636 12.803 L 14.167 13.333 Z M 14.167 13.333 L 14.697 12.803 L 12.197 10.303 L 11.667 10.833 L 11.136 11.364 L 13.636 13.864 L 14.167 13.333 Z M 14.167 0 L 13.636 0.53 L 16.136 3.03 L 16.667 2.5 L 17.197 1.97 L 14.697 -0.53 L 14.167 0 Z M 14.167 0 L 13.636 -0.53 L 11.136 1.97 L 11.667 2.5 L 12.197 3.03 L 14.697 0.53 L 14.167 0 Z" fill="currentColor" fill-rule="nonzero"></path>
</svg>